<svg width="70" height="74" viewBox="0 0 70 74" fill="none" xmlns="http://www.w3.org/2000/svg">
<path d="M0.308594 30.2497C0.308594 13.5432 13.8518 0 30.5583 0V41.7862C30.5583 58.4926 17.015 72.0358 0.308594 72.0358V30.2497Z" fill="#5599FC"/>
<path d="M36.5858 18.3467C36.5858 9.26858 43.9451 1.9093 53.0232 1.9093C62.1014 1.9093 69.4606 9.26858 69.4606 18.3467V19.2957C69.4606 28.3739 62.1014 35.7332 53.0232 35.7332C43.9451 35.7332 36.5858 28.3739 36.5858 19.2957V18.3467Z" fill="#ABE2FF"/>
<path d="M36.5857 56.5586C36.5857 47.4804 43.945 40.1212 53.0231 40.1212C62.1012 40.1212 69.4605 47.4804 69.4605 56.5586V57.5076C69.4605 66.5857 62.1012 73.945 53.0231 73.945C43.945 73.945 36.5857 66.5857 36.5857 57.5076V56.5586Z" fill="#D9E8FF"/>
</svg>